/* XPM */
static char *_574285222157[] = {
/* columns rows colors chars-per-pixel */
"81 28 2 1 ",
"  c white",
". c None",
/* pixels */
"..................................................................... ...........",
".        ................................................. .......    ...........",
".           ...........................................    .......    ...........",
".             .........................................    .......    ...........",
".   .....      ........................................    .......    ...........",
".   .......    ........................................    .......    ...........",
".   ........    ........     ........   .      ......          ...    ..     ....",
".   ........    ......          .....            ....          ...             ..",
".   .........   .....            ....             ...          ...             ..",
".   .........   ....     ....    ....    ....     .....    .......      ...     .",
".   .........   ....   .......    ...   .......    ....    .......    ......    .",
".   .........   ...    .......    ...   .......    ....    .......    ......    .",
".   .........   ...               ...   .......    ....    .......    .......   .",
".   .........   ...               ...   .......    ....    .......    .......   .",
".   ........    ...               ...   .......    ....    .......    .......   .",
".   ........    ...    ..............   .......    ....    .......    .......   .",
".   .......    ....    ..............   .......    ....    .......    .......   .",
".   .......    .....    .............   .......    ....    .......    .......   .",
".   .....     ......     ....   .....    ....     .....    .......    .......   .",
".            ........           .....             ......       ...    .......   .",
".           ..........          .....           ........       ...    .......   .",
".        ...............      .......         ............     ...    .......   .",
".....................................   .........................................",
".....................................   .........................................",
".....................................   .........................................",
".....................................   .........................................",
".....................................   .........................................",
".....................................   ........................................."
};
