/* XPM */
static char *_574122767283[] = {
/* columns rows colors chars-per-pixel */
"190 28 2 1 ",
"  c white",
". c None",
/* pixels */
"...........................................................   ..............................................................................................................................  ",
".....  .........  .........................................    .................................................     .....................................................................    ",
"....   ........   .........................................    ...............................................         ...................................................................    ",
"....   ........   .........................................   ...............................................          ...................................................................    ",
"....    .......    .........................................................................................    ....   ...................................................................    ",
"....    ......     ........................................................................... .............    ...... ...................................................................    ",
"...     ......     .........     ......    ........   ...      ....   ..     ..........     .   ............    ............   .      ............     ............     ............     .    ",
"...      .....     .......         .....    ......    ...      ....            ......            ...........    ............            ........         ........          .......            ",
"...      .....     ......           ....    ......    ...      ....             ....            ............     ...........             ......           ......            .....             ",
"...      ....       ....     ...     ....   ......   ......    ....     ....    ....    ...     .............     ..........    ....     .....    ....     ....     ....    .....    ....     ",
"...       ...       ....    .....    ....    ....    ......    ....    ......    ..    .....    .............       ........   .......    ...    .......   ....   .......    ...    ......    ",
"..        ...       ...    .......    ....   ....   .......    ....    ......    ..    .....    ...............       ......   .......    ...   ........    ..    .......    ...   .......    ",
"..    .   ..    .   ...    .......    ....   ...    .......    ....    ......    ..    .....    .................      .....   .......    ...               ..               ..    .......    ",
"..    .   ..   ..   ...    .......    ....    ..   ........    ....    ......    ..    .....    ...................     ....   .......    ...               ..               ..    .......    ",
"..    ..   .   ..    ..    .......    .....   .    ........    ....    ......    ...    ...     ....................    ....   .......    ...               ..               ..    .......    ",
"..   ...      ...    ..    .......    .....       .........    ....    ......    ...           ......................    ...   .......    ...   ..............    .............    .......    ",
".    ...      ...    ..    .......    ......      .........    ....    ......    ....         .......................    ...   .......    ...    .............    .............    .......    ",
".    ....     ....   ...    .....    .......     ..........    ....    ......    ....        ................ .......    ...   .......    ...    ....... ......    .............    ......    ",
".    ....    .....    ..     ...     ........    ..........    ....    ......    ...    ....................   .....    ....    ....     .....    .....  ......     ....   .....     ....     ",
".    .....   .....    ...           .........    ..........    ....    ......    ...           .............            ....             .....            ......           ......             ",
".   ......  ......    ....         ...........  ...........    ....    ......    ...            ............          ......           ........          ........          .......            ",
"    ......  ......    ......     .............  ...........    ....    ......    ....            .............      ........         ............      ............      ...........     .    ",
".............................................................................................    ...........................   ...............................................................",
"..................................................................................... .......    ...........................   ...............................................................",
"....................................................................................    .....    ...........................   ...............................................................",
"....................................................................................            ............................   ...............................................................",
"....................................................................................           .............................   ...............................................................",
".......................................................................................      ...............................   ..............................................................."
};
