/* XPM */
static char *_574122817210[] = {
/* columns rows colors chars-per-pixel */
"209 28 2 1 ",
"  c white",
". c None",
/* pixels */
"............................................................................   ................................................................................................................................  ",
"          ............................ ........................... .........    ...................................................     .....................................................................    ",
"            ........................   .........................   .........    .................................................         ...................................................................    ",
"             .......................   .........................   .........   .................................................          ...................................................................    ",
"    .....     ......................   .........................   ............................................................    ....   ...................................................................    ",
"    ......    ......................   .........................   ............................................................    ...... ...................................................................    ",
"    ......    ........     .......         ......      .......         ...      ........     ........   ..     ................    ............   .      ............     ............     ............     .    ",
"    ......    ......         .....         .....         .....         ...      ......         ......            ..............    ............            ........         ........         ........            ",
"    ......    .....           ....         .....          ....         ...      .....           .....             .............     ...........             ......           ......           ......             ",
"    .....     ....     ...     .....   ......... .....    ......   .........    ....     ...     ....     ....    ..............     ..........    ....     .....    ....     ....    ....     .....    ....     ",
"             .....    .....    .....   ................    .....   .........    ....    .....    ....    ......    .............       ........   .......    ...    .......   ...    .......   ....    ......    ",
"            .....    .......    ....   ............        .....   .........    ...    .......    ...    ......    ...............       ......   .......    ...   ........    ..   ........    ...   .......    ",
"          .......    .......    ....   .........           .....   .........    ...    .......    ...    ......    .................      .....   .......    ...               ..               ..    .......    ",
"    ...    ......    .......    ....   ........            .....   .........    ...    .......    ...    ......    ...................     ....   .......    ...               ..               ..    .......    ",
"    ...     .....    .......    ....   .......     ....    .....   .........    ...    .......    ...    ......    ....................    ....   .......    ...               ..               ..    .......    ",
"    ....    .....    .......    ....   .......    .....    .....   .........    ...    .......    ...    ......    .....................    ...   .......    ...   ..............   ..............    .......    ",
"    .....    ....    .......    ....   .......    .....    .....   .........    ...    .......    ...    ......    .....................    ...   .......    ...    .............    .............    .......    ",
"    .....     ....    .....    .....   .......    .....    .....   .........    ....    .....    ....    ......    ............. .......    ...   .......    ...    ....... .....    ....... ......    ......    ",
"    ......    ....     ...     .....    ... ..    ....     .....    ... ....    ....     ...     ....    ......    ............   .....    ....    ....     .....    .....  ......    .....  ......     ....     ",
"    .......    ....           ......        ...            .....        ....    .....           .....    ......    ............            ....             .....            .....            ......             ",
"    .......     ....         ........       ...             .....       ....    ......         ......    ......    ............          ......           ........          .......          ........            ",
"    ........    ......     ...........      .....     ...   ......      ....    ........     ........    ......    ..............      ........         ............      ...........      ............     .    ",
"...............................................................................................................................................   ...............................................................",
"...............................................................................................................................................   ...............................................................",
"...............................................................................................................................................   ...............................................................",
"...............................................................................................................................................   ...............................................................",
"...............................................................................................................................................   ...............................................................",
"...............................................................................................................................................   ..............................................................."
};
