/* XPM */
static char *_574122866334[] = {
/* columns rows colors chars-per-pixel */
"103 22 2 1 ",
"  c white",
". c None",
/* pixels */
"......................................  ...............................................................",
"    ..........    ..................    ...............................................................",
".    .........    ..................    ...............................................................",
".    .........    ..................    ...............................................................",
".    ........    ...................    ...............................................................",
"..    .......    ...................    ...............................................................",
"..    ......    .......     ........    .....   .......   .....  ...    .....    ...........     ......",
"...    .....    .....         ......    .....   .......   .....           .        .......          ...",
"...    .....    ....           .....    .....   .......   .....                     .....            ..",
"...    ....    ....     ...     ....    .....   .......   .....    ....     ....    ....     ....    ..",
"....    ...    ....    .....    ....    .....   .......   .....   .....    .....    ....   .......    .",
"....    ...   ....    .......    ...    .....   .......   .....   ......   ......   ...    .......    .",
".....   ..    ....    .......    ...    .....   .......   .....   ......   ......   ...               .",
".....    .    ....    .......    ...    .....   .......   .....   ......   ......   ...               .",
".....        .....    .......    ...    .....   .......   .....   ......   ......   ...               .",
"......       .....    .......    ...    .....   .......   .....   ......   ......   ...    ............",
"......      ......    .......    ...    .....   .......   .....   ......   ......   ...    ............",
"......      .......    .....    ....    .....   ......    .....   ......   ......   ....    ...........",
".......     .......     ...     ....    .....    ....     .....   ......   ......   ....     ....   ...",
".......    .........           .....    .....             .....   ......   ......   .....           ...",
"........   ..........         ......     .....            .....   ......   ......   ......          ...",
"........  .............     .........   .......     ...   .....   ......   ......   ........      ....."
};
