/* XPM */
static char *_574124527659[] = {
/* columns rows colors chars-per-pixel */
"64 22 2 1 ",
"  c white",
". c None",
/* pixels */
"...................................................  ...........",
"         ........................................    ...........",
"            .....................................    ...........",
"            .....................................    ...........",
"    ....     ....................................    ...........",
"    .....    ....................................    ...........",
"    ......   .......      ............     ......    ....     ..",
"    .....    .....          ........         ....    ....    ...",
"    ....     .....          .......          ....    ...    ....",
"            ....... .....    .....     ....  ....    ..    .....",
"           ...............   ....    ............    .    ......",
"             ........        ....    ............    .   .......",
"    .....     .....          ....   .............        .......",
"    ......    ....           ....   .............         ......",
"    .......   ...     ....   ....   .............          .....",
"    .......    ..   ......   ....   .............     .    .....",
"    .......    ..   ......   ....    ............    ...    ....",
"    ......    ...   ......   ....    ....... ....    ...    ....",
"    .....     ...    ....     ....    .....  ....    ....    ...",
"             ....             ....            ...    ....     ..",
"            ......            .....          ....    .....    ..",
"          .........     ...   ........     ......    ......    ."
};
