/* XPM */
static char *_574527404054[] = {
/* columns rows colors chars-per-pixel */
"104 22 2 1 ",
"  c white",
". c None",
/* pixels */
"........................................     ...............................................  ..........",
".         .............................      .............................................    ..........",
".            .........................       .............................................    ..........",
".             .......................    .................................................    ..........",
".    .....    .......................    .................................................    ..........",
".    ......    ......................   ..................................................    ..........",
".    ......    ........     .......         ...    ..    .......     ..........     ......    .     ....",
".    ......    ......         .....         ...          .....          .....         ....            ..",
".    ......    .....           ....         ...          ....            ...          ....             .",
".    .....    .....    ....     .....   .......     ... ....     ....    ...    .... .....     ....    .",
".            .....    .......   .....   .......    .........   .......    ..    ..........    ......    ",
".           ......   ........    ....   .......    ........    .......    ..    ..........    ......    ",
".          .......               ....   .......    ........               ...     ........    ......    ",
".    ..     ......               ....   .......    ........               ....       .....    ......    ",
".    ...    ......               ....   .......    ........               .....       ....    ......    ",
".    ....    .....   ................   .......    ........    ..................      ...    ......    ",
".    ....     ....    ...............   .......    ........    ....................    ...    ......    ",
".    .....    ....    ....... .......   .......    .........    ...................    ...    ......    ",
".    ......    ....    .....  .......   .......    .........     ....   ..... .....    ...    ......    ",
".    ......     ...            ......   .......    ..........           .....         ....    ......    ",
".    .......    ....          .......   .......    ...........          ....          ....    ......    ",
".    .......     .....      .........   .......    .............      ........      ......    ......    "
};
