/* XPM */
static char *_574464535969[] = {
/* columns rows colors chars-per-pixel */
"22 71 2 1 ",
"  c #ECECEC",
". c None",
/* pixels */
"......................",
"........       .......",
"......           .....",
"....               ...",
"...                 ..",
"...                 ..",
"..                   .",
"..                   .",
".                     ",
".                     ",
".                     ",
".                     ",
".                     ",
".                     ",
".                     ",
".                     ",
".                     ",
".                     ",
".                     ",
".                     ",
".                     ",
".                     ",
".                     ",
".                     ",
".                     ",
".                     ",
".                     ",
".                     ",
".                     ",
".                     ",
".                     ",
".                     ",
".                     ",
".                     ",
".                     ",
".                     ",
".                     ",
".                     ",
".                     ",
".                     ",
".                     ",
".                     ",
".                     ",
".                     ",
".                     ",
".                     ",
".                     ",
".                     ",
".                     ",
".                     ",
".                     ",
".                     ",
".                     ",
".                     ",
".                     ",
".                     ",
".                     ",
".                     ",
".                     ",
".                     ",
".                     ",
".                     ",
".                     ",
".                     ",
"..                   .",
"..                   .",
"...                 ..",
"...                 ..",
"....               ...",
"......           .....",
"........       ......."
};
