/* XPM */
static char *_573989218746[] = {
/* columns rows colors chars-per-pixel */
"64 64 256 2 ",
"   c black",
".  c #1F170B",
"X  c #170F07",
"o  c #4B4B4B",
"O  c white",
"+  c #1B1B1B",
"@  c #131313",
"#  c #0B0B0B",
"$  c #070707",
"%  c #2F371F",
"&  c #232B0F",
"*  c #171F07",
"=  c #0F1700",
"-  c #4F3B2B",
";  c #473323",
":  c #3F2B1B",
">  c #FFB7B7",
",  c #F7ABAB",
"<  c #F3A3A3",
"1  c #EB9797",
"2  c #E78F8F",
"3  c #DF8787",
"4  c #DB7B7B",
"5  c #D37373",
"6  c #CB6B6B",
"7  c #C76363",
"8  c #BF5B5B",
"9  c #BB5757",
"0  c #B34F4F",
"q  c #AF4747",
"w  c #A73F3F",
"e  c #A33B3B",
"r  c #9B3333",
"t  c #972F2F",
"y  c #8F2B2B",
"u  c #8B2323",
"i  c #831F1F",
"p  c #7F1B1B",
"a  c #771717",
"s  c #731313",
"d  c #6B0F0F",
"f  c #670B0B",
"g  c #5F0707",
"h  c #5B0707",
"j  c #530707",
"k  c #4F0000",
"l  c #470000",
"z  c #430000",
"x  c #FFEBDF",
"c  c #FFE3D3",
"v  c #FFDBC7",
"b  c #FFD3BB",
"n  c #FFCFB3",
"m  c #FFC7A7",
"M  c #FFBF9B",
"N  c #FFBB93",
"B  c #FFB383",
"V  c #F7AB7B",
"C  c #EFA373",
"Z  c #E79B6B",
"A  c #DF9363",
"S  c #D78B5B",
"D  c #CF8353",
"F  c #CB7F4F",
"G  c #BF7B4B",
"H  c #B37347",
"J  c #AB6F43",
"K  c #A36B3F",
"L  c #9B633B",
"P  c #8F5F37",
"I  c #875733",
"U  c #7F532F",
"Y  c #774F2B",
"T  c #6B4727",
"R  c #5F4323",
"E  c #533F1F",
"W  c #4B371B",
"Q  c #3F2F17",
"!  c #332B13",
"~  c #2B230F",
"^  c #EFEFEF",
"/  c #E7E7E7",
"(  c #DFDFDF",
")  c gray86",
"_  c LightGray",
"`  c #CBCBCB",
"'  c gray78",
"]  c gray75",
"[  c #B7B7B7",
"{  c gray70",
"}  c gray67",
"|  c #A7A7A7",
" . c #9F9F9F",
".. c #979797",
"X. c #939393",
"o. c #8B8B8B",
"O. c #838383",
"+. c gray50",
"@. c #777777",
"#. c #6F6F6F",
"$. c gray42",
"%. c gray39",
"&. c #5B5B5B",
"*. c gray34",
"=. c gray31",
"-. c gray28",
";. c #434343",
":. c gray23",
">. c #373737",
",. c #2F2F2F",
"<. c #272727",
"1. c #232323",
"2. c #77FF6F",
"3. c #6FEF67",
"4. c #67DF5F",
"5. c #5FCF57",
"6. c #5BBF4F",
"7. c #53AF47",
"8. c #4B9F3F",
"9. c #439337",
"0. c #3F832F",
"q. c #37732B",
"w. c #2F6323",
"e. c #27531B",
"r. c #1F4317",
"t. c #17330F",
"y. c #13230B",
"u. c #0B1707",
"i. c #BFA78F",
"p. c #B79F87",
"a. c #AF977F",
"s. c #A78F77",
"d. c #9F876F",
"f. c #9B7F6B",
"g. c #937B63",
"h. c #8B735B",
"j. c #836B57",
"k. c #7B634F",
"l. c #775F4B",
"z. c #6F5743",
"x. c #67533F",
"c. c #5F4B37",
"v. c #574333",
"b. c #533F2F",
"n. c #9F8363",
"m. c #8F7753",
"M. c #836B4B",
"N. c #775F3F",
"B. c #675333",
"V. c #5B472B",
"C. c #4F3B23",
"Z. c #43331B",
"A. c #7B7F63",
"S. c #6F7357",
"D. c #676B4F",
"F. c #5B6347",
"G. c #53573B",
"H. c #474F33",
"J. c #3F472B",
"K. c #373F27",
"L. c #FFFF73",
"P. c #EBDB57",
"I. c #D7BB43",
"U. c #C39B2F",
"Y. c #AF7B1F",
"T. c #9B5B13",
"R. c #874307",
"E. c #732B00",
"W. c white",
"Q. c #FFDBDB",
"!. c #FFBBBB",
"~. c #FF9B9B",
"^. c #FF7B7B",
"/. c #FF5F5F",
"(. c #FF3F3F",
"). c #FF1F1F",
"_. c red",
"`. c #EF0000",
"'. c #E30000",
"]. c #D70000",
"[. c #CB0000",
"{. c #BF0000",
"}. c #B30000",
"|. c #A70000",
" X c #9B0000",
".X c #8B0000",
"XX c #7F0000",
"oX c #730000",
"OX c #670000",
"+X c #5B0000",
"@X c #4F0000",
"#X c #430000",
"$X c #E7E7FF",
"%X c #C7C7FF",
"&X c #ABABFF",
"*X c #8F8FFF",
"=X c #7373FF",
"-X c #5353FF",
";X c #3737FF",
":X c #1B1BFF",
">X c blue",
",X c #0000E3",
"<X c #0000CB",
"1X c #0000B3",
"2X c #00009B",
"3X c #000083",
"4X c #00006B",
"5X c #000053",
"6X c white",
"7X c #FFEBDB",
"8X c #FFD7BB",
"9X c #FFC79B",
"0X c #FFB37B",
"qX c #FFA35B",
"wX c #FF8F3B",
"eX c #FF7F1B",
"rX c #F37317",
"tX c #EB6F0F",
"yX c #DF670F",
"uX c #D75F0B",
"iX c #CB5707",
"pX c #C34F00",
"aX c #B74700",
"sX c #AF4300",
"dX c white",
"fX c #FFFFD7",
"gX c #FFFFB3",
"hX c #FFFF8F",
"jX c #FFFF6B",
"kX c #FFFF47",
"lX c #FFFF23",
"zX c yellow",
"xX c #A73F00",
"cX c #9F3700",
"vX c #932F00",
"bX c #872300",
"nX c #4F3B27",
"mX c #432F1B",
"MX c #372313",
"NX c #2F1B0B",
"BX c #000053",
"VX c #000047",
"CX c #00003B",
"ZX c #00002F",
"AX c #000023",
"SX c #000017",
"DX c #00000B",
"FX c cyan",
"GX c #FF9F43",
"HX c #FFE74B",
"JX c #FF7BFF",
"KX c magenta",
"LX c #CF00CF",
"PX c #9F009B",
"IX c #6F006B",
"UX c #A76B6B",
/* pixels */
"E A G G G G G G G S S A A A A A A A S S S A A S S S S S A A A G H C S S S S S S S S S S S S S S G G G G G G G S S S S S G G G H ",
"R G T Y Y Y U U U I P L L L L L L P L K G S S D F S D F G H K Y E D K K K K K K K H H H H H H K L L L L L K H H K L P I U U U R ",
"R G Y Y Y U U zXU U U U U U U U Y U I K G S S G G D S F G K L Y E D K K H H H G F F D S D D D F G G G G G D F H L zXI I I I I R ",
"R G Y Y Y Y qXfXU Y Y Y Y Y Y Y U I L K H H K L L H G F G H K Y R S F F D S D D S S S A S S S S S A S D D D G L L fXqXL L L P R ",
"R G U U qXzXfXfXeXzXzXzX*.+.*.zXzXzXzXzXzXzXzXzXzXzXzXzXzXzXzXzXzXzXzXzXzXzXzXzXzXzXzXzXzXzXzXzXzXzXzX%.+.zXzXzXfXfXzXzXqXL P R ",
"E G U U iXiXiXzXxXxXxXxX| *.>.-.>.xXxXxXxXxXxXxXxXxXxXxXxXxXxXxXxXxXxXxXxXxXxXxXxXxXxXxXxXxXxXxXxX>.,.  -.L xXxXxXqXiXiXiXP P R ",
"E G U U U R R eXR R R Y Y |._.}.-.>.  Y Y Y Y Y Y Y U U U I P T E K L L P P I P P P U U Y Y Y   ,.>.OX}.Q E T T Y xXR T P P P T ",
"E G U U U U U U I P L H G _._.'.'.}. XXXXXL L K K K H H H H H I R A D F H H K D F H K K K K oX}.}.}.{.}.E T I P P P P I I I I T ",
"E G Y Y Y U U U I L K H H _._.'.'.].[.{.}.|.|.}.{.]._.O -.O _.].{.|.{   ..|..X X}.[.].`.).)._._.'.].{.}.E T I P P I U U U U I T ",
"E G Y Y Y Y Y U P K H K L _._.'.'.].[.{.}.|.|.}.{.]._.O -.O _.].{.|.{   ..|..X X}.[.].`.).)._._.'.].{.}.R Y P I I U U U Y U U T ",
"R G Y Y Y U U P L K K P I _._.'.'.].[.{.}.|.|.}.{.]._.O -.O _.].{.|.{   ..|..X X}.[.].`.).)._._.'.].{.}.R Y L I U U U Y Y U U R ",
"R G U U P L L K K L P I U _._.'.'.].[.{.}.|.|.}.{.]._.O -.O _.].{.|.{   ..|..X X}.[.].`.).)._._.'.].{.}.R U K L I U U U U U I R ",
"R G I L K H G G K P U U U _._.'.'.].[.{.}.|.|.}.{.]._.O -.O _.].{.|.{   ..|..X X}.[.].`.).)._._.'.].{.}.E Y K K K L I I I I I R ",
"T S K K K K G G K U U U U _._.'.'.].[.{.}.|.|.}.{.]._.O -.O _.].{.|.{   ..|..X X}.[.].`.).)._._.'.].{.}.E Y H F G K L L L L P T ",
"T A K L I P K H L U Y U U _._.'.'.].[.{.}.|.|.}.{.]._.O -.O _.].{.|.{   ..|..X X}.[.].`.).)._._.'.].{.}.E Y G D G K L L L L L T ",
"T S P U U P K K I Y Y Y U _._.'.'.].[.{.}.|.|.}.{.]._.O -.O _.].{.|.{   ..|..X X}.[.].`.).)._._.'.].{.}.E U G H K L L P P L L Y ",
"R G Y Y U L H L U T Y Y U _._.'.'.].[.{.}.|.|.}.{.]./.O -.O _.].{.|.{   ..|..X X}.[.].`.).)._._.'.].{.}.R U K L P P P I I P L T ",
"R G T Y U L H L Y T Y U I _._.'.'.].[.{.}.|.|.}.{./.O O -.O ^ ^ ) _ {   ....%. X}.[.].`.).)._._.'.].{.}.R Y L I I P P P P P L T ",
"R G T Y I K H P Y T Y I L _._.'.'.].[.{.}.|.|.}.#.) O *.-.O ^ ^ ) _ { |     +.#.-.[.].`.).)._._.'.].{.}.E T I I P L L L P P L Y ",
"R G T U L G H P Y Y I L H _._.'.'.].[.{.}.|.|.#.] ,.-.O ..-.>.>.,.1.1.  ....    ..#.].`.).)._._.'.].{.}.W R I I P L L L P L H U ",
"E G T U L G K I U I L H H _._.'.'.].[.{.}.|.#.] ,.#.O *.-.O ^ ^ ) _ { |     +.#.  | #.`.).)._._.'.].{.}.W R I P P L L L L K F I ",
"E G T U L H L I I L H K L _._.'.'.].[.{.}.|.{   #.) -.O O *.>.>.o._ { | ..#.  #.#.  { `.).)._._.'.].{.}.E T P L L L L L H F D U ",
"E G Y I K H L L L H K L U _._.'.'.].[.{.}.|   #.] ,.O O o.-.>.>.*._ { | ....+.  ..#.  _ ).)._._.'.].{.}.E Y L L L L L G S S G T ",
"E G U L H K K K H K L U Y _._.'.'.].[.{.%.|   ] ,.) O o.-.-.>.*.o._ { *.  ,.+.#.  |   _ ..)._._.'.].{.}.E Y K K L L H D S G L R ",
"R G L H G H H H K L U Y T _._.'.'.].[.{.o.  {   ] ) o.*.-.-.*.o.) _ *.      ,.#...  {   ^ )._._.`.].{.}.E Y K K L L H D G L U R ",
"R S H G G G H K L I U Y T O O O _ { ..o.o.  {   ] | -.*.-.-.*.o.) *.1.        ,...  #.  ^ ^ ^ ) _ | o.#.E Y K K L L H G L I I T ",
"R A H H G H K L I U U Y Y     >.>.>.      |   ] ] ) o.*.-.-.>.*.*.1.1.          ,.#.  _ -.%.*.*.,.      E Y K L L K H H L L K U ",
"T A H H H K P I U U U U I O O O _ { ..o.o.|   ] ] ) O o.-.-.>.>.,.1.1.  ,.        |   _ ^ ^ ^ ) _ | o.#.E Y K L L H F F H H H U ",
"T C H H L P U U U I I L K _._.'.'.].[.{.o.|   ] ] ) O O o.-.>.>.,.1.1.,...,.      |   _ ^ )._._.'.[.{.}.E Y K K K G D D G H K T ",
"U C H K P U U I I P L K G _._.'.'.].[.{.o.|   ] ,.o.O O O *.>.>.,.1.,.%.....,.,.,.|   _ ^ )._._.'.[.{.}.E U H H H G G H K L P R ",
"U C K P I U U P L L K H F _._.'.'.].[.{.o.|   ] ,.,.o.O o.-.>.>.,.1.1.  %...+.#...|   _ ^ )._._.'.[.{.}.R I F G H K L P P I I R ",
"R G T R R R R T T Y Y I I O O O _ { ..o.o.|   ] ,.,.-.*.-.-.>.>.*.1.1.    %.+.#...|   _ ^ ^ ^ ) _ | o.#.E T P U Y T T R R R R W ",
"R H E W W W W E E E E R R     >.>.>.      |   ] *.,.-.*.-.-.>.o.) *.1.      +.#...#.  _ -.%.*.*.,.      Q E T R E E E W W W W ! ",
"Y A G G G G G G G D S S A O O O _ { o.o.o.  #.  ] *.-.*.-.-.o.^ ) _ *.        #...  {   ^ ^ ^ ) _ | o.#.Y K S D D D G G G G G I ",
"R G U U U U U U U I H A A _._.'.'.].[.{.o.  {   ] ) o.*.-.o.^ ^ ) _ *.        #...  {   ^ )._._.'.].{.}.Y L H K K L L P I U U R ",
"R G U U U U U U U P H S S _._.'.'.].[.{.}.|   ] ,.) O O O O ^ ^ ) *.1.      +.#.  |   _ o.)._._.'.].{.}.Y L H H K K L L P I I T ",
"R G Y U U U U I L K H H H _._.'.'.].[.{.}.|   ] ] ,.O O O O ^ ^ ) 1.1.    ..+.  ..#.  ^ ).)._._.'.].{.}.T I H H H H H G H K K Y ",
"R G Y U U I L K H H K L L _._.'.'.].[.{.}.|.{   ] ) -.O O O ^ ^ ) *.1.  ..-.  #.#.  { #.).)._._.'.].{.}.R Y H H H F D D D F G U ",
"R G U I L K H H H K L L L _._.'.'.].[.{.}.|./.] ,.) O *.-.O ^ ^ ) _ { |     +.-.  | o.`.).)._._.'.].{.}.E Y H H F D F G G H H Y ",
"R G I L H H H K L L L L L _._.'.'.].[.{.}.|.|./.] ,.-.O O -.>.>.,.1.1.  ....    ..o.].`.).)._._.'.].{.}.E Y H F F G H K L L P R ",
"R G L H H K L L P L L L L _._.'.'.].[.{.}.|.|.}./.) | *.-.O ^ ^ ) _ { #.    +.#.#.[.].`.).)._._.'.].{.}.T P F F G H K L P I U E ",
"R S K K L I I P P L L P P _._.'.'.].[.{.}.|.|.}.{.]...O -.O ^ ^ ) _ {   ....%. X}.[.].`.).)._._.'.].{.}.Y P F G H K L P I U Y E ",
"T A L P U U I P P P P I I _._.'.'.].[.{.}.|.|.}.{.]._.O -.O _.].{.|.{   ..|..X X}.[.].`.).)._._.'.].{.}.R I H H K K L P I U U E ",
"T S I U U I P P P P I I I _._.'.'.].[.{.}.|.|.}.{.]._.O -.O _.].{.|.{   ..|..X X}.[.].`.).)._._.'.].{.}.E U H H H H K K K L L T ",
"R G U U I P L P P P I I P _._.'.'.].[.{.}.|.|.}.{.]._.O -.O _.].{.|.{   ..|..X X}.[.].`.).)._._.'.].{.}.R I G F G H H H H H H Y ",
"R G U I P L L L P P P L K _._.'.'.].[.{.}.|.|.}.{.]._.O -.O _.].{.|.{   ..|..X X}.[.].`.).)._._.'.].{.}.R U K K K K L L L L P T ",
"R G I P L L L L L L K H H _._.'.'.].[.{.}.|.|.}.{.]._.O -.O _.].{.|.{   ..|..X X}.[.].`.).)._._.'.].{.}.E Y L P P I I I U U U R ",
"R G P L K K L L K H G H H _._.'.'.].[.{.}.|.|.}.{.]._.O -.O _.].{.|.{   ..|..X X}.[.].`.).)._._.'.].{.}.E Y L K L L L L P P P T ",
"R G L K K K K H H G H K P _._.'.'.].[.{.}.|.|.}.{.]._.O -.O _.].{.|.{   ..|..X X}.[.].`.).)._._.'.].{.}.E U H H H H K K K K H Y ",
"R S K K H H G F G H L P U _._.'.'.].[.{.}.|.|.}.{.]._.O -.O _.].{.|.{   ..|..X X}.[.].`.).)._._.'.].{.}.R Y L L L L P P P L K T ",
"T S K H G F D F H K L I U _._.'.'.].[.{.}.|.|.}.{.]._.O -.O _.].{.|.{   ..|..X X}.[.].`.).)._._.'.].{.}.E T I U U Y Y Y Y Y U R ",
"T S H F D D F H K K L P I _._.'.'.].[.{.}.|.|.}.{.]._.O -.O _.].{.|.{   ..|..X X}.[.].`.).)._._.'.].{.}.W R U U U Y T R R R Y E ",
"T A F D F G H H K K L P I _._.'.'.].[.{.}.|.|.}.{.]._.O -.O _.].{.|.{   ..|..X X}.[.].`.).)._._.'.].{.}.E R U U U U Y Y Y Y Y R ",
"T A F G H H H H K K L P I _._.'.'.].[.{.}.|.|.}.{.]._.O -.O _.].{.|.{   ..|..X X}.[.].`.).)._._.'.].{.}.E Y P I U U U U U U U R ",
"T A H H K H H H K K L P I _._.'.'.].[.{.}.|.|.}.{.]._.O -.O _.].{.|.{   ..|..X X}.[.].`.).)._._.'.].{.}.R U L P P P P P I I I R ",
"T S K L K K K K K L L P P P L U E E E E E E E E E  X X|   |  X X X X%.  %.E E E E XX|.].).)._._.'.].{.T E Y K K K K K K L L L T ",
"R G P P L L L L L L L L K K H K L Y T Y Y Y Y Y Y Y E E E E E Q ! R W E E E E E E E E E E E E E E E E T Y I L H H H H H H K L T ",
"R G I I I P P L L K H G G H K P I U U U U U U I P I Y Y Y T R W ! I R T U P U Y T T T R R R R R T T T Y Y U I L L K K K H H K T ",
"R G I I P L L K H H H G G K I U U U U U U I I P P L P P I I U R W G U L L I Y R R T Y Y Y U U U U U U Y Y U U U I I I P K H H Y ",
"R G L K K K H H H K L K L P U U U I I I I I P P P P P I U U U R W G L L I Y R R T T Y Y Y Y U U U U U U U U U U U U U U I L K U ",
"R S K K K L L P I U U U I I I I I P P P P I I I I U U U I U U R E D L P U Y Y Y Y Y Y Y Y Y U U U U U U U U U U U U U U U U I T ",
"T S P I U U Y Y Y T Y U U I P L L L L P P P I I I U U P L L L Y E D L U U U U U U U Y Y Y Y Y U U U U U U U U U U Y Y Y Y Y Y R ",
"T S P I U U Y Y Y T Y U U I P L L L L P P P I I I U U P L L L Y E D L U U U U U U U Y Y Y Y Y U U U U U U U U U U Y Y Y Y Y Y R ",
"R G R E E E E E R R T Y U P L K K K K K K K K L L L L K K H H Y E G U U Y U U U U U Y Y Y T Y Y Y Y Y Y Y Y Y Y Y Y Y Y Y T R W "
};
