/* XPM */
static char *_573988756962[] = {
/* columns rows colors chars-per-pixel */
"64 64 256 2 ",
"   c black",
".  c #1F170B",
"X  c #170F07",
"o  c #4B4B4B",
"O  c white",
"+  c #1B1B1B",
"@  c #131313",
"#  c #0B0B0B",
"$  c #070707",
"%  c #2F371F",
"&  c #232B0F",
"*  c #171F07",
"=  c #0F1700",
"-  c #4F3B2B",
";  c #473323",
":  c #3F2B1B",
">  c #FFB7B7",
",  c #F7ABAB",
"<  c #F3A3A3",
"1  c #EB9797",
"2  c #E78F8F",
"3  c #DF8787",
"4  c #DB7B7B",
"5  c #D37373",
"6  c #CB6B6B",
"7  c #C76363",
"8  c #BF5B5B",
"9  c #BB5757",
"0  c #B34F4F",
"q  c #AF4747",
"w  c #A73F3F",
"e  c #A33B3B",
"r  c #9B3333",
"t  c #972F2F",
"y  c #8F2B2B",
"u  c #8B2323",
"i  c #831F1F",
"p  c #7F1B1B",
"a  c #771717",
"s  c #731313",
"d  c #6B0F0F",
"f  c #670B0B",
"g  c #5F0707",
"h  c #5B0707",
"j  c #530707",
"k  c #4F0000",
"l  c #470000",
"z  c #430000",
"x  c #FFEBDF",
"c  c #FFE3D3",
"v  c #FFDBC7",
"b  c #FFD3BB",
"n  c #FFCFB3",
"m  c #FFC7A7",
"M  c #FFBF9B",
"N  c #FFBB93",
"B  c #FFB383",
"V  c #F7AB7B",
"C  c #EFA373",
"Z  c #E79B6B",
"A  c #DF9363",
"S  c #D78B5B",
"D  c #CF8353",
"F  c #CB7F4F",
"G  c #BF7B4B",
"H  c #B37347",
"J  c #AB6F43",
"K  c #A36B3F",
"L  c #9B633B",
"P  c #8F5F37",
"I  c #875733",
"U  c #7F532F",
"Y  c #774F2B",
"T  c #6B4727",
"R  c #5F4323",
"E  c #533F1F",
"W  c #4B371B",
"Q  c #3F2F17",
"!  c #332B13",
"~  c #2B230F",
"^  c #EFEFEF",
"/  c #E7E7E7",
"(  c #DFDFDF",
")  c gray86",
"_  c LightGray",
"`  c #CBCBCB",
"'  c gray78",
"]  c gray75",
"[  c #B7B7B7",
"{  c gray70",
"}  c gray67",
"|  c #A7A7A7",
" . c #9F9F9F",
".. c #979797",
"X. c #939393",
"o. c #8B8B8B",
"O. c #838383",
"+. c gray50",
"@. c #777777",
"#. c #6F6F6F",
"$. c gray42",
"%. c gray39",
"&. c #5B5B5B",
"*. c gray34",
"=. c gray31",
"-. c gray28",
";. c #434343",
":. c gray23",
">. c #373737",
",. c #2F2F2F",
"<. c #272727",
"1. c #232323",
"2. c #77FF6F",
"3. c #6FEF67",
"4. c #67DF5F",
"5. c #5FCF57",
"6. c #5BBF4F",
"7. c #53AF47",
"8. c #4B9F3F",
"9. c #439337",
"0. c #3F832F",
"q. c #37732B",
"w. c #2F6323",
"e. c #27531B",
"r. c #1F4317",
"t. c #17330F",
"y. c #13230B",
"u. c #0B1707",
"i. c #BFA78F",
"p. c #B79F87",
"a. c #AF977F",
"s. c #A78F77",
"d. c #9F876F",
"f. c #9B7F6B",
"g. c #937B63",
"h. c #8B735B",
"j. c #836B57",
"k. c #7B634F",
"l. c #775F4B",
"z. c #6F5743",
"x. c #67533F",
"c. c #5F4B37",
"v. c #574333",
"b. c #533F2F",
"n. c #9F8363",
"m. c #8F7753",
"M. c #836B4B",
"N. c #775F3F",
"B. c #675333",
"V. c #5B472B",
"C. c #4F3B23",
"Z. c #43331B",
"A. c #7B7F63",
"S. c #6F7357",
"D. c #676B4F",
"F. c #5B6347",
"G. c #53573B",
"H. c #474F33",
"J. c #3F472B",
"K. c #373F27",
"L. c #FFFF73",
"P. c #EBDB57",
"I. c #D7BB43",
"U. c #C39B2F",
"Y. c #AF7B1F",
"T. c #9B5B13",
"R. c #874307",
"E. c #732B00",
"W. c white",
"Q. c #FFDBDB",
"!. c #FFBBBB",
"~. c #FF9B9B",
"^. c #FF7B7B",
"/. c #FF5F5F",
"(. c #FF3F3F",
"). c #FF1F1F",
"_. c red",
"`. c #EF0000",
"'. c #E30000",
"]. c #D70000",
"[. c #CB0000",
"{. c #BF0000",
"}. c #B30000",
"|. c #A70000",
" X c #9B0000",
".X c #8B0000",
"XX c #7F0000",
"oX c #730000",
"OX c #670000",
"+X c #5B0000",
"@X c #4F0000",
"#X c #430000",
"$X c #E7E7FF",
"%X c #C7C7FF",
"&X c #ABABFF",
"*X c #8F8FFF",
"=X c #7373FF",
"-X c #5353FF",
";X c #3737FF",
":X c #1B1BFF",
">X c blue",
",X c #0000E3",
"<X c #0000CB",
"1X c #0000B3",
"2X c #00009B",
"3X c #000083",
"4X c #00006B",
"5X c #000053",
"6X c white",
"7X c #FFEBDB",
"8X c #FFD7BB",
"9X c #FFC79B",
"0X c #FFB37B",
"qX c #FFA35B",
"wX c #FF8F3B",
"eX c #FF7F1B",
"rX c #F37317",
"tX c #EB6F0F",
"yX c #DF670F",
"uX c #D75F0B",
"iX c #CB5707",
"pX c #C34F00",
"aX c #B74700",
"sX c #AF4300",
"dX c white",
"fX c #FFFFD7",
"gX c #FFFFB3",
"hX c #FFFF8F",
"jX c #FFFF6B",
"kX c #FFFF47",
"lX c #FFFF23",
"zX c yellow",
"xX c #A73F00",
"cX c #9F3700",
"vX c #932F00",
"bX c #872300",
"nX c #4F3B27",
"mX c #432F1B",
"MX c #372313",
"NX c #2F1B0B",
"BX c #000053",
"VX c #000047",
"CX c #00003B",
"ZX c #00002F",
"AX c #000023",
"SX c #000017",
"DX c #00000B",
"FX c cyan",
"GX c #FF9F43",
"HX c #FFE74B",
"JX c #FF7BFF",
"KX c magenta",
"LX c #CF00CF",
"PX c #9F009B",
"IX c #6F006B",
"UX c #A76B6B",
/* pixels */
"Q Q Q Q Q Q Q Q Q Q Q Q Q Q Q Q Q Q Q Q Q Q Q Q Q Q Q Q Q Q Q Q Q Q Q Q Q Q Q Q Q Q Q Q Q Q Q Q Q Q Q Q Q Q Q Q Q Q Q Q Q Q Q Q ",
"T T T T T T T T T T T T T T T T T T T T T T T T T T T T T T T T T T T T T T T T T T T T T T T T T T T T T T T T T T T T T T T T ",
"P P P P P P P P P P P P P P P P P P P P P P P P P P P P P P P P P P P P P P P P P P P P P P P P P P P P P P P P P P P P P P P P ",
"E E E E E E E ! E ~ ! E E E E E E E E E E E E E E ! E ~ ! E E E E ! E ~ ! E E E E E E ! E ~ ! E E E E E E E E E E E ! E ~ ! E E ",
"W W T Y Y Y Y E P ~ E P R W W W W Y Y W T W T W W E P ~ E P Y W Y E P ~ E P R W W W R E P ~ E P W Y W W Y W Y W Y Y E P ~ E P T ",
"W W T Y Y Y R E P ~ E P T W W W E Y Y W T W T W W E P ~ E P Y W Y E P ~ E P Y R W R Y E P ~ E P W Y W W Y W Y W Y Y E P ~ E P T ",
"W W R Y Y fXhXzXzXzXzXzXzXzXzXzXzXzXzXzXzXzXzXzXzXzXzXzXzXzXzXzXzXzXzXzXzXzXzXzXzXzXzXzXzXzXzXzXzXzXzXzXzXzXzXzXzXzXqXxX~ E P T ",
"E W E T Y hXzXqXqXqXqXqXqXqXqXqXqXqXqXqXqXqXqXqXqXqXqXqXqXqXqXqXqXqXqXqXqXqXqXqXqXqXqXqXqXqXqXqXqXqXqXqXqXqXqXqXqXqXtX! ~ E P T ",
"T W W R Y zXqXxXxXxXxXxXxXxXxXxXxXxXxXxXxXxXxXxXxXxXxXxXxXxXxXxXxXxXxXxXxXxXxXxXxXxXxXxXxXxXxXxXxXxXxXxXxXxXxXxXxXtXyX! ~ E P E ",
"T W E W R zXqXxX,.,.,.,.,.,.,.,.,.,.,.,.,.,.,.,.,.,.,.,.,.,.,.,.,.,.,.,.,.,.,.,.,.,.,.,.,.,.,.,.,.,.,.,.,.,.,.,.,.qXyX! ~ E P E ",
"Y E W W E zXqXxX,.w.w.q.9.9.9.8.5.5.5.8.9.q.q.q.q.q.q.q.q.q.q.q.q.q.q.q.q.q.q.q.q.q.q.q.q.q.q.9.9.9.9.9.q.w.r.r.r.qXyX! ~ E P E ",
"Y E W W W zXqXxX,.w.9.8.5.5.5.5.5.5.=X*X~.^.^.^././././././.(.(.(.(.(././././././././.^.^.^.~.FX5.5.8.9.q.w.w.w.q.qXyX! ~ E P W ",
"T Y W W W zXqXxX,.9.8.5.5.5.5.5.*X~.^./././././.(.(.(.(.(._.(._.(._.(._.(.(.(.(.(.(./././././.^.~.FX8.9.9.q.q.q.8.qXyX! ~ E P W ",
"T Y E W W zXqXxX,.5.5.5.5.5.5.=X/.^.^.^./.^./././.(.(.(.(.(._.(._.(._.(.(.(.(.(.(./././.^./.^.^.^./.5.8.9.9.8.8.5.qXyX! ~ E P W ",
"R Y Y W E zXqXxX,.5.=X5.5.5.8./.^.^.^.^.^./.^./.(./.(.(.(.(.(._.(._.(._.(.(.(././.(./.^./.^.^.^.^.^./.5.5.5.5.=X=XqXyX! ~ E P W ",
"E Y Y Y E zXqXxX,.5.FX=X5.5./.)./.^.^.^./.^./././.(.(.(.(.(._.(._.(._.(.(.(.(.(.(./././.^./.^.^.^./.)./.=X=X=X=X*XqXyX! ~ E P E ",
"W T Y Y R zXqXxX,.8.5.FXFX5.XX'._./.^./._.[.[.}.}.}.}.}.}.}.}.}.}.}.}.}.}.}.}.}.}.}.}.[.[._./.^./._.'.XX=X=X=XFX5.qXyX! ~ E P E ",
"W T Y Y Y zXqXxX,.8.5.FX=X=X+XXX'._._.}.[.w.w.q.9.9.9.9.q.w.-.-.-.-.w.q.9.8.8.8.8.9.*.*.*.[.}._._.'.XX+X=XFXFXFX*XqXyX! ~ E P E ",
"W R T Y Y zXqXxX,.9.5.=XFX9.XX+X X}.XX}.*.w.w.q.q.q.w.w.-.-.-.-.-.-.-.w.q.9.8.8.9.9.r.9.*.*.}.XX}. X+XXXFXFX*XFX=XqXyX! ~ E P T ",
"W E T Y Y zXqXxX,.9.=XFX5./.}.}.+XXX+X+Xq.{ O O ] +.-.-.-.%.] ) O O ..%.w.q.9.9.+.) O ..*.*.+X+XXX+X}.}./.*X*X=X=XqXyX! ~ E P T ",
"W W R Y Y zXqXxX,.q.=X8./././.'.}.+X+X*.) O { +.*.-.r.-.-.] ) O ) #.-.  #.q.q.q.*.#.] O ] *.+X+X+X}.'./././.=X=X=XqXyX! ~ E P T ",
"W W E Y Y zXqXxX,.w.8./.^.^././.'. X*.) O { +.*.,.-.r.r.r.] O O O ..O O ) #.w.w.>.~ #.] O *.*.XX X'././.^.^./.8.5.qXyX! ~ E P T ",
"E W E R E zXqXxX,.w._././.^.^././.*.8.O { +.*.,.,.*.r.r.r.] ] ^ ..%.#.#.#.#.w.r.*.~ ,.#.) ) ..*.*././.^.^././._.5.qXyX! ~ E P T ",
"E W W E W zXqXxX,.w.XX_././.^.^.9.8.) O ..*.,.,.,.*.-.r.r.+.) ] ..+.>.r.r.r.r.*.%.~ ,.,.] O ] ..*.r.^.^././._.XX8.qXyX! ~ E P T ",
"E W W W W zXqXxX,.w.XX'._././.9.8.8.O ) +.*.,.,.,.+.*.+.r.%.) ) | | +.*.r.r.r.+.o.~ ,.>...) O ..8.8.r././._.'.XX8.qXyX! ~ E P R ",
"T W W W W zXqXxX,.w.XX}.'._.).*.8.8.O { %.,.,.Q *.*.| +.+.+.) ^ ^ ] ] o.+.*.r.o.+.~ >.>.o.) O ..9.8.*.)._.'.}.XX5.qXyX! ~ E P E ",
"T W W W W zXqXxX,.q.w. X}.'.XX+X*.r.O ..*.,.,.,.,.*.| ] ^ O O O O O O ) ..+.o.{ %.,.>.-.+.) O ..q.*.+XXX'.}. X9.5.qXyX! ~ E P E ",
"T E W W W zXqXxX,.9.8.w. X}.oXXX+X*.O ..*.,.>.,.,.,.*.| ) O O O O O O ) ..+.9.%.,.,.>.-.+.) O ..*.+XXXoX}. X9.5.=XqXyX! ~ E P W ",
"R E W W W zXqXxX,.8.=X8.w. X+XoX+X+XO ..*.,.,.>.,.,.,.*.| O ^ ^ ^ ^ ^ ] ..%.%.,.,.,.-.*.+.) O ..+X+XoX+X X9.5.=X=XqXyX! ~ E P W ",
"E T W W W zXqXxX,.5.FX=X9.+X+X+X+X+XO ..*.,.,.,.>.>.,.,.*.) ] ] ] ] ] | +.>.,.,.,.,.-.%.o.) O ..+X+X+X+X+X5.=X=X=XqXyX! ~ E P W ",
"E T E W W zXqXxX,.5.FXFX=X'.}. XXX+XO ..*.,.,.,.,.,.,.,.*.] ] | | | | +.%.>.1.1.1.>.*.%...) O ..+X}.}.'.'.5.=X5.5.qXyX! ~ E P W ",
"W R E W T zXqXxX,.8.FXFXFX(.'.}. X+X] ..*.>.-.,.,.,.,.,.*.) | +.+.+.+.+.*.>.1.,.,.,.-.#...) O ..+X}.'.'.(.5.5.5.5.qXyX! ~ E P W ",
"W E T E T zXqXxX,.9.FXFX/.(.'.'.}.+X] { *.>.>.-.-.,.,.,.*.] ..*.*.*.*.%.*.>.1.,.>.*.%.+.{ ) O ..+X'.'.'.(./.5.5.5.qXyX! ~ E P W ",
"W E T E T zXqXxX,.q.=X/.^./.(.'.XX*.o.O %.>.>.>.>.>.,.,.*.] +.-.-.-.-.*.#.>.>.>.>.*.+...] ) _ ..*.XX'.(./.^./.5.5.qXyX! ~ E P W ",
"W W R T R zXqXxX,.q.9.'./.^./.XX*.r.*.O +.>.,.>.>.,.r.r.*.| %.,.,.,.,.#.o.%.>.-.-.*...{ ) O { ..r.*.XX/.^./.'.5.5.qXyX! ~ E P E ",
"W W E R E zXqXxX,.8.8.}._./.XXr.*.*.r.] { >.,.>.,.r.r.r.#.{ +.,.,.,.,.o.{ #.-.>.>.#.{ ] ) O | #.r.r.*.XX/._.}.5.5.qXyX! ~ E P E ",
"W W W E W zXqXxX,.5.5.XX X_.XXXX+X*.r.o.O %.>.,.,.r.r.r.+._ o.1.1.1.1.o.{ +.>.>.>.%.] ) ) ] ..q.r.+XXXXX_. XXX5.5.qXyX! ~ E P R ",
"W W W W W zXqXxX,.5.5.w.oX XXXXX+X+X*.*._ | >.>.,.r.r.,.o._ ..1.1.1.1._ { o.>.>.>.-.) ) O ..#.r.+X+XXXXX XoXq.5.5.qXyX! ~ E P T ",
"W W W W W zXqXxX,.8.5.8.w.+X+X+X+XXX+X*.o.O %.>.r.r.r.,.| _ | 1.1.1.1.) { o.>.>.>.>.) O { #.*.+XXX+X+X+X+Xq.8.5.8.qXyX! ~ E P T ",
"E W W W W zXqXxX,.9.=X5.8.9.w.r.XX.XXX+X*.o.] >.,.r.r.*.) ) ) 1.1.1...) ) ) r.>.r.>.O { #.*.+XXX.XXXw.q.9.8.9.8.8.qXyX! ~ E P T ",
"E W W W W zXqXxX,.q.5.=X/.(.XXXX>.XX}..X+X*...+.,.r.-.) o.) o.O o.) o.o.) o.) r.r.r.{ #.*.+X.X}.XXw.XXXX(./.8.9.9.qXyX! ~ E P E ",
"T E W W W zXqXxX,.q.8./.^./.}.}.XXXX}.}.+X*.*.*.*.eXqXU.U.U.U.U.U.U.U.U.U.Y.Y.R.r.r.r.r.r.+X}.}.XXXX}.}./.^./.8.q.qXyX! ~ E P E ",
"T E W W W zXqXxX,.w./.(./.^./.XXXXXX+X}..XOX*.*.qXlXL.gXgXgXgXgXhXhXL.L.lXzXU.T.Y r.r.r.OX.X}.+XXXXXXX/.^./.(./.9.qXyX! ~ E P W ",
"T R E W E zXqXxX,.w.].'.(.(.XXXX+X+XXX+XXX+X*.qXlXL.gXhXjXjX(.{.{.{.(.U.U.Y.Y.T.E Y r.r.+XXX+XXX+X+XXXXX(.(.'.].q.qXyX! ~ E P W ",
"T T E E E zXqXxX,.r.XX}.'.'.XXr.w.r.+X+XXX+X*.r.tXU.U.jXU.{.{.  {.{.{.{.E xXE E E r.w.q.+XXX+X+Xr.r.r.XX'.'.}.XXq.qXyX! ~ E P W ",
"R T R E R zXqXxX,.r.w.XXXX}.}.XXr.w.r.+X+X*.r.*.tXlXU.gX(.{.  XX{.k   {.oXT.E E E w.9.q.w.+X+Xr.r.r.XX}.}.XXXXr.q.qXyX! ~ E P W ",
"E T T R T zXqXxX,.w.9.w.w.+X+X+XXXXXXXXXr.*.*.r.tXlXU.gX{.{.k   k   XX  .XT.E E E q.8.9.q.w.XXXXXXXX+X+X+Xr.w.9.5.qXyX! ~ E P W ",
"E T T R T zXqXxX,.w.5.5.9.q.q.w.+X+X+X+X+Xr.r.*.tXlXU.gX{.{.{.k   k {.{.{.T.E E E w.9.q.r.+X+X+X+X+Xr.w.w.q.q.9.5.qXyX! ~ E P W ",
"W T Y Y Y zXqXxX,.q.5.^./.{.XXq.w.w.+X.XXX+Xr.r.tXlXU.gX{.  XX  k   k {..XT.E E E r.w.r.+XXX.X+Xr.r.r.XX{./.q.q.9.qXyX! ~ E P W ",
"W R Y Y Y zXqXxX,.q.^.^./.'.'.{.XXXXXX X.XXX+Xr.tXlXU.gX(.{.  k {.XX  {.oXT.E E E w.w.+XXX.X XXXXXXX{.'.'././.8.q.qXyX! ~ E P W ",
"W E T Y Y zXqXxX,.q././.^./.'.XXXXXX}.}. X.X+Xr.tXlXU.gXU.{.{.{.{.  {.oXE T.E E E w.w.+X.X X}.}.XXXXXX'./.^././.8.qXyX! ~ E P W ",
"W E T Y Y zXqXxX,.w.{.'.(.^.XXr.r.XXXX}.}.XX+Xr.tXlXU.gXU.L.(.{.{.{.oXR.E T.E E E w.w.+XXX}.}.XXXX*.*.XX^.(.'.{.8.qXyX! ~ E P E ",
"W W R Y T zXqXxX,.r.q.{.}.'.+X Xr.r.r.XXXX+Xr.tXGXL.gXO hXO L.lXlXzXU.U.T.Y.T T E E r.r.+XXXXXq.q.*. X+X'.}.{.8.9.qXyX! ~ E P E ",
"W W E T T zXqXxX,.w.8.q.{.+X+X+X+X+Xr.q.q.q.q.aXR.E tXxXxXGXxXxXxXxXxXE Y Y Y Y E E r.w.q.9.9.r.+X+X+X+X+X{.8.9.9.qXyX! ~ E P R ",
"W W E T R zXqXxX,.w.9.8.w.w.XX}.}. X+Xq.9.9.tXGXL.L.O gXO O L.L.lXlXzXU.U.T.Y.T T E E w.q.q.w.+X X}.}.XXq.q.9.9.q.qXyX! ~ E P R ",
"W W W R R zXqXxX,.w.w.r.XXXXXXXXXX}.XXq.9.8.aXR.E tXxXxXGXtXxXxXxXxXxXE E Y Y Y Y E E r.w.w.w.XX}.XXXXXXXXXXq.q.q.qXyX! ~ E P T ",
"W W W E E zXqXxX,.r.r.r.r.r.r.>.XXXXr.w.q.tXGXL.L.O gXgXO O L.L.lXlXzXU.U.U.T.T.T T E E r.r.r.r.XXXX9.9.9.q.q.q.q.qXyX! ~ E P T ",
"E W W W W zXqXxX,.r.r.r.r.r.r.r.r.r.w.r.w.aXR.tXtXxXxXGXtXtXxXxXxXxXxXE E E Y Y Y T E E r.r.r.r.w.q.9.8.9.q.q.q.q.qXyX! ~ E P Y ",
"E W W W W zXqXtXqXqXqXqXqXqXqXqXqXqXqXqXqXqXqXqXqXqXqXqXqXqXqXqXqXqXqXqXqXqXqXqXqXqXqXqXqXqXqXqXqXqXqXqXqXqXqXqXqXqXyX! ~ E P Y ",
"R W W W W zXqXyXyXyXyXyXyXyXyXyXyXyXyXyXyXyXyXyXyXyXyXyXyXyXyXyXyXyXyXyXyXyXyXyXyXyXyXyXyXyXyXyXyXyXyXyXyXyXyXyXyXyXyX! ~ E P Y ",
"R E W W W qX! ! ! ! ! ! ! ! ! ! ! ! ! ! ! ! ! ! ! ! ! ! ! ! ! ! ! ! ! ! ! ! ! ! ! ! ! ! ! ! ! ! ! ! ! ! ! ! ! ! ! ! ! ! ~ E P Y ",
"T E W W W E T ! R ~ E R ! ! ! ! ! ! ! ! ! ! ! ! ! ! R ~ E R ! ! ! ! R ~ E R ! ! ! ! ! ! R ~ E R ! ! ! ! ! ! ! ! ! ! ! R ~ E P Y ",
"T R W W W E T E P ~ E P W W W W R W W W W T Y Y R E P ~ E P T R W E P ~ E P W W W W W E P ~ E P R W Y R W W W W W W E P ~ E P Y ",
"R R R R R R R E P ~ E P R W W W W W W W R R R R R E P ~ E P R W W E P ~ E P R W W W R E P ~ E P R W R R W W W W W W E P ~ E P R "
};
